<?xml version="1.0" encoding="UTF-8" standalone="no"?>
<svg
   height="720"
   viewBox="0 0 720 720"
   width="720"
   version="1.1"
   id="svg20"
   sodipodi:docname="descarga.svg"
   inkscape:version="1.1 (c68e22c387, 2021-05-23)"
   xmlns:inkscape="http://www.inkscape.org/namespaces/inkscape"
   xmlns:sodipodi="http://sodipodi.sourceforge.net/DTD/sodipodi-0.dtd"
   xmlns="http://www.w3.org/2000/svg"
   xmlns:svg="http://www.w3.org/2000/svg">
  <defs
     id="defs24" />
  <sodipodi:namedview
     id="namedview22"
     pagecolor="#ffffff"
     bordercolor="#666666"
     borderopacity="1.0"
     inkscape:pageshadow="2"
     inkscape:pageopacity="0.0"
     inkscape:pagecheckerboard="0"
     showgrid="false"
     fit-margin-top="0"
     fit-margin-left="0"
     fit-margin-right="0"
     fit-margin-bottom="0"
     inkscape:zoom="0.52"
     inkscape:cx="93.269231"
     inkscape:cy="206.73077"
     inkscape:window-width="1920"
     inkscape:window-height="1017"
     inkscape:window-x="1912"
     inkscape:window-y="-8"
     inkscape:window-maximized="1"
     inkscape:current-layer="svg20" />
  <g
     fill-rule="evenodd"
     id="g18"
     transform="matrix(7.2028812,0,0,7.2028812,-7.2028812,-0.28811525)">
    <path
       d="M 100.95,16.86 C 100.91,7.57 93.36,0.04 84.05,0.04 c -2.31,0 -4.57,0.44 -6.52,1.31 L 15.95,27.5 C 7.17,31.21 1,39.91 1,50.02 V 83.1 c 0,9.33 7.57,16.9 16.9,16.9 2.37,0 4.62,-0.49 6.67,-1.37 L 85.89,72.59 c 8.84,-3.68 15.07,-12.41 15.07,-22.57 z"
       fill="#fc4c02"
       id="path2" />
    <g
       fill="#ffffff"
       id="g14">
      <path
         d="M 44.3,63.3 C 43.58,63.3 43,62.66 43,61.86 V 31.44 C 43,30.65 43.58,30 44.3,30 c 0.72,0 1.3,0.65 1.3,1.44 v 30.42 c 0,0.8 -0.58,1.44 -1.3,1.44 z"
         id="path4" />
      <path
         d="M 55.6,61.94 V 38.16 c 0,-0.81 -0.58,-1.46 -1.3,-1.46 -0.72,0 -1.3,0.65 -1.3,1.46 v 23.78 c 0,0.81 0.58,1.46 1.3,1.46 0.72,0 1.3,-0.65 1.3,-1.46 z"
         id="path6" />
      <path
         d="M 55.6,31.34 V 31.26 C 55.6,30.57 55.02,30 54.3,30 53.58,30 53,30.57 53,31.26 v 0.08 c 0,0.7 0.58,1.26 1.3,1.26 0.72,0 1.3,-0.56 1.3,-1.26 z"
         id="path8" />
      <path
         d="m 35.27,60.09 c 0.57,-0.57 0.57,-1.49 0,-2.06 -0.58,-0.57 -1.51,-0.57 -2.08,0 -4.24,4.2 -11.13,4.2 -15.37,0 -4.24,-4.21 -4.24,-11.05 0,-15.25 2.05,-2.04 4.78,-3.16 7.68,-3.16 2.91,0 5.64,1.12 7.69,3.16 0.57,0.57 1.5,0.57 2.08,0 0.57,-0.57 0.57,-1.5 0,-2.07 -2.61,-2.59 -6.08,-4.01 -9.77,-4.01 -3.69,0 -7.15,1.42 -9.76,4.01 -5.39,5.35 -5.39,14.04 0,19.38 2.69,2.68 6.23,4.01 9.77,4.01 3.53,0 7.07,-1.33 9.76,-4.01 z"
         id="path10" />
      <path
         d="M 65.92,69.24 V 50.37 c 0,-5.93 4.83,-10.76 10.78,-10.76 5.95,0 10.78,4.83 10.78,10.76 0,5.94 -4.83,10.76 -10.78,10.76 -3.43,0 -5.75,-1.3 -5.77,-1.31 -0.69,-0.41 -1.59,-0.18 -1.99,0.52 -0.41,0.69 -0.17,1.58 0.52,1.99 0.12,0.07 2.98,1.71 7.24,1.71 7.56,0 13.7,-6.13 13.7,-13.67 C 90.4,42.83 84.26,36.7 76.7,36.7 69.15,36.7 63,42.83 63,50.37 v 18.87 c 0,0.81 0.65,1.46 1.46,1.46 0.8,0 1.46,-0.65 1.46,-1.46 z"
         id="path12" />
    </g>
  </g>
</svg>
